<svg xmlns="http://www.w3.org/2000/svg"  viewBox="0 0 149 27" fill="none">
  <path fill-rule="evenodd" clip-rule="evenodd" d="M34.434 7.36693H36.5491H37.1367V4.65723H34.434V7.36693Z" fill="#FDCD48"/>
  <path fill-rule="evenodd" clip-rule="evenodd" d="M127.085 20.0144H129.2H129.787V17.3047H127.085V20.0144Z" fill="#FDCD48"/>
  <path fill-rule="evenodd" clip-rule="evenodd" d="M145.533 7.40843H147.648H148.229V4.69873H145.533V7.40843Z" fill="#093EB0"/>
  <path d="M37.1367 9.23096H34.434V20.0698H37.1367V9.23096Z" fill="#093EB0"/>
  <path d="M148.236 9.27246H145.533V20.035H148.236V9.27246Z" fill="#093EB0"/>
  <path fill-rule="evenodd" clip-rule="evenodd" d="M44.6987 8.96064C44.2702 8.96064 43.8831 9.00915 43.5444 9.09924C43.2057 9.18933 42.9015 9.31408 42.632 9.45961C42.3624 9.60514 42.1274 9.76454 41.9408 9.93086C41.6712 10.1734 41.5191 10.4783 41.4431 10.6377V9.18933H38.7681V20.0074H41.4845V14.1444C41.4845 13.7425 41.5468 13.3752 41.6781 13.0287C41.8094 12.6821 41.9891 12.3772 42.2172 12.1139C42.4453 11.8505 42.7218 11.6495 43.0467 11.504C43.3716 11.3585 43.7172 11.2823 44.0835 11.2823C44.6849 11.2823 45.1687 11.4694 45.5489 11.8505C45.9222 12.2248 46.1157 12.7584 46.1157 13.4514V20.0004H48.8322V13.4237C48.8322 12.0584 48.4797 10.9635 47.7746 10.1596C47.0696 9.35566 46.0397 8.94678 44.6849 8.94678L44.6987 8.96064Z" fill="#093EB0"/>
  <path fill-rule="evenodd" clip-rule="evenodd" d="M56.6706 17.8939C56.4149 18.0186 56.0762 18.081 55.6476 18.081C55.1914 18.081 54.8527 17.9147 54.6454 17.582C54.438 17.2494 54.3343 16.7781 54.3343 16.1613V11.4349H57.2305V9.22422H54.3343V4.65723H51.6248V9.22422H49.8483V11.4349H51.6248V16.3484C51.6248 16.9444 51.687 17.4989 51.8114 17.9978C51.9358 18.4968 52.1363 18.9265 52.4197 19.2799C52.7031 19.6334 53.0763 19.9036 53.5325 20.0977C53.9956 20.2917 54.5486 20.3887 55.2122 20.3887C55.8757 20.3887 56.4356 20.2917 56.9609 20.0977C57.4794 19.9036 58.0116 19.5848 58.5438 19.1413L57.3964 17.4573C57.1683 17.6236 56.9264 17.7691 56.6706 17.8939Z" fill="#093EB0"/>
  <path fill-rule="evenodd" clip-rule="evenodd" d="M67.8612 10.825C67.4465 10.2429 66.8935 9.76469 66.2161 9.40432C65.5318 9.04395 64.6954 8.86377 63.7139 8.86377C62.8983 8.86377 62.1587 9.0093 61.4882 9.30037C60.8177 9.59144 60.244 9.99339 59.7601 10.4993C59.2763 11.0052 58.8961 11.6081 58.6335 12.2942C58.3639 12.9803 58.2325 13.7218 58.2325 14.5257C58.2325 15.4059 58.3639 16.2028 58.6335 16.9305C58.903 17.6582 59.2832 18.275 59.7878 18.7878C60.2855 19.3076 60.8868 19.7095 61.5988 20.0006C62.3038 20.2916 63.0918 20.4372 63.9489 20.4372C64.806 20.4372 65.518 20.3471 66.1262 20.16C66.7345 19.9729 67.2322 19.765 67.6262 19.5363C68.0202 19.3076 68.3174 19.0858 68.5248 18.8779C68.7321 18.67 68.8565 18.5452 68.9049 18.4967L67.4326 16.8335C67.3428 16.9236 67.2045 17.0483 67.0317 17.1939C66.852 17.3394 66.6308 17.478 66.3543 17.6097C66.0779 17.7413 65.7461 17.8591 65.3521 17.9562C64.9581 18.0532 64.5019 18.1086 63.9835 18.1086C63.6309 18.1086 63.2715 18.0463 62.9121 17.9215C62.5526 17.7968 62.2278 17.6235 61.9444 17.3879C61.661 17.1592 61.426 16.882 61.2532 16.5563C61.0734 16.2306 60.9905 15.8702 60.9905 15.4682H69.057V15.0732C69.057 14.304 68.9671 13.5486 68.7805 12.807C68.5939 12.0655 68.2967 11.4071 67.8819 10.8181L67.8612 10.825ZM60.949 13.507C60.949 13.2298 61.0112 12.9526 61.1357 12.6754C61.2601 12.3982 61.4329 12.1487 61.6679 11.9269C61.896 11.7051 62.1863 11.518 62.5319 11.3725C62.8775 11.227 63.2715 11.1507 63.7208 11.1507C64.1355 11.1507 64.5019 11.227 64.8268 11.3725C65.1516 11.518 65.4143 11.7051 65.6216 11.9269C65.829 12.1487 65.988 12.3982 66.0917 12.6754C66.2023 12.9526 66.2507 13.2298 66.2507 13.507H60.949Z" fill="#093EB0"/>
  <path fill-rule="evenodd" clip-rule="evenodd" d="M106.217 12.2662C106.473 11.9613 106.784 11.7118 107.171 11.5177C107.551 11.3237 108.007 11.2267 108.525 11.2267C109.044 11.2267 109.535 11.3237 109.949 11.5247C110.364 11.7256 110.724 12.0028 111.028 12.3563L112.749 10.6029C112.244 10.0624 111.629 9.63965 110.91 9.32086C110.191 9.009 109.396 8.84961 108.519 8.84961C107.641 8.84961 106.873 9.00207 106.162 9.31393C105.45 9.61886 104.841 10.0347 104.337 10.5614C103.832 11.0811 103.438 11.6979 103.155 12.3979C102.871 13.0978 102.733 13.8393 102.733 14.6225C102.733 15.4818 102.864 16.2649 103.127 16.9718C103.39 17.6787 103.763 18.2885 104.254 18.7944C104.745 19.3003 105.346 19.6953 106.072 19.9726C106.791 20.2498 107.613 20.3884 108.532 20.3884C109.452 20.3884 110.254 20.229 110.945 19.9033C111.636 19.5775 112.23 19.1479 112.735 18.6142L111.124 16.8609C110.82 17.2143 110.44 17.4916 109.998 17.6995C109.555 17.9074 109.065 18.0113 108.525 18.0113C107.986 18.0113 107.551 17.9143 107.171 17.7133C106.791 17.5123 106.473 17.249 106.217 16.9302C105.961 16.6045 105.774 16.2441 105.657 15.8491C105.533 15.4471 105.47 15.0452 105.47 14.6294C105.47 14.2136 105.533 13.777 105.657 13.3612C105.781 12.9453 105.968 12.585 106.217 12.2801V12.2662Z" fill="#093EB0"/>
  <path fill-rule="evenodd" clip-rule="evenodd" d="M124.493 15.0384C124.493 14.2691 124.403 13.5206 124.216 12.7791C124.029 12.0445 123.732 11.3792 123.318 10.7971C122.903 10.2149 122.357 9.7437 121.672 9.38333C120.988 9.02296 120.159 8.84277 119.177 8.84277C118.361 8.84277 117.629 8.98831 116.958 9.27938C116.295 9.57044 115.714 9.97239 115.237 10.4783C114.753 10.9842 114.38 11.5802 114.111 12.2663C113.841 12.9524 113.71 13.6939 113.71 14.4909C113.71 15.3641 113.841 16.168 114.111 16.8887C114.38 17.6095 114.76 18.2262 115.258 18.746C115.756 19.2588 116.357 19.6608 117.062 19.9588C117.767 20.2499 118.548 20.3954 119.405 20.3954C120.262 20.3954 120.974 20.3053 121.576 20.1182C122.184 19.9311 122.682 19.7301 123.069 19.4945C123.463 19.2658 123.76 19.044 123.967 18.8361C124.175 18.6282 124.299 18.5035 124.347 18.4549L122.875 16.7986C122.785 16.8887 122.647 17.0065 122.474 17.1521C122.301 17.2976 122.073 17.4362 121.797 17.5679C121.52 17.6996 121.189 17.8104 120.795 17.9144C120.407 18.0114 119.951 18.0668 119.426 18.0668C119.073 18.0668 118.714 18.0045 118.355 17.8797C117.995 17.755 117.67 17.5817 117.387 17.353C117.103 17.1243 116.875 16.8471 116.696 16.5214C116.516 16.1957 116.433 15.8353 116.433 15.4403H124.479V15.0453L124.493 15.0384ZM116.426 13.4721C116.426 13.1949 116.488 12.9177 116.613 12.6405C116.737 12.3633 116.91 12.1138 117.138 11.8921C117.366 11.6703 117.656 11.4832 118.002 11.3376C118.348 11.1921 118.742 11.1159 119.184 11.1159C119.599 11.1159 119.965 11.1921 120.29 11.3376C120.615 11.4832 120.878 11.6703 121.085 11.8921C121.292 12.1138 121.451 12.3633 121.555 12.6405C121.659 12.9177 121.714 13.1949 121.714 13.4721H116.426Z" fill="#093EB0"/>
  <path d="M73.3288 9.23096H70.7299V20.0698H73.3288V9.23096Z" fill="#093EB0"/>
  <path fill-rule="evenodd" clip-rule="evenodd" d="M76.218 9.23096C75.2365 9.23096 74.4416 10.0279 74.4416 11.012C74.4416 11.9961 75.2365 12.7931 76.218 12.7931C77.1995 12.7931 77.9944 11.9961 77.9944 11.012C77.9944 10.0279 77.1995 9.23096 76.218 9.23096Z" fill="#093EB0"/>
  <path d="M87.2637 9.86865H83.7109V12.1002H87.2637V9.86865Z" fill="#093EB0"/>
  <path fill-rule="evenodd" clip-rule="evenodd" d="M84.8377 3.65902C81.8378 3.79069 79.5292 6.36872 79.5292 9.36949V20.0143L82.1558 18.6975V9.20317C82.1627 7.58843 83.476 6.27863 85.0935 6.27863C85.9851 6.27863 86.78 6.68058 87.3123 7.3043L89.1717 5.44008C88.1072 4.28274 86.5588 3.57586 84.8377 3.65209V3.65902Z" fill="#093EB0"/>
  <path fill-rule="evenodd" clip-rule="evenodd" d="M98.247 10.6586C97.6249 9.57053 96.2287 8.88444 94.7702 8.88444C91.5768 8.86365 89.0746 10.8318 89.0746 14.6018C89.0746 18.3719 91.4662 20.4301 94.7011 20.4093C95.9176 20.3885 97.6249 19.7648 98.247 18.4827L98.3784 20.0351H100.929V9.27253H98.3369L98.247 10.6586ZM95.0121 17.9283C93.215 17.9283 91.7772 16.6878 91.7772 14.6018C91.7772 12.5159 93.215 11.3031 95.0121 11.3031C99.2631 11.3031 99.2631 17.9283 95.0121 17.9283Z" fill="#093EB0"/>
  <path fill-rule="evenodd" clip-rule="evenodd" d="M140.785 10.6586C140.162 9.57053 138.766 8.88444 137.308 8.88444C134.114 8.86365 131.612 10.8318 131.612 14.6018C131.612 18.3719 134.004 20.4301 137.239 20.4093C138.455 20.3885 140.162 19.7648 140.785 18.4827L140.916 20.0351H143.466V9.27253H140.874L140.785 10.6586ZM137.55 17.9283C135.753 17.9283 134.315 16.6878 134.315 14.6018C134.315 12.5159 135.753 11.3031 137.55 11.3031C141.801 11.3031 141.801 17.9283 137.55 17.9283Z" fill="#093EB0"/>
  <path d="M10.6908 16.5352C12.3629 16.5352 13.7183 15.1762 13.7183 13.4998C13.7183 11.8234 12.3629 10.4644 10.6908 10.4644C9.01874 10.4644 7.66327 11.8234 7.66327 13.4998C7.66327 15.1762 9.01874 16.5352 10.6908 16.5352Z" fill="#FDCD48"/>
  <path d="M25.6971 0H3.93067C2.27175 0 0.930786 1.35139 0.930786 3.01463V23.9854C0.930786 25.6486 2.27175 27 3.93067 27H25.6971C27.3491 27 28.697 25.6486 28.697 23.9854V3.01463C28.697 1.35139 27.3491 0 25.6971 0ZM24.9782 23.2716H8.69315C6.46052 23.2716 4.64953 21.4559 4.64953 19.2105V7.78953C4.64953 5.55108 6.46052 3.72844 8.69315 3.72844H24.9782V10.6378H16.5315V16.3622H24.9782V23.2716Z" fill="#093EB0"/>
</svg>